G04 Layer: BottomSilkscreenLayer*
G04 EasyEDA v6.5.54, 2026-05-09 17:25:40*
G04 8a625d17ac994dda926aaf0c6716fe8f,0de2d170eb8348028f5b305b88e97ed8,10*
G04 Gerber Generator version 0.2*
G04 Scale: 100 percent, Rotated: No, Reflected: No *
G04 Dimensions in millimeters *
G04 leading zeros omitted , absolute positions ,4 integer and 5 decimal *
%FSLAX45Y45*%
%MOMM*%

%ADD10C,0.1524*%
%ADD11C,0.2540*%
%ADD12C,0.2000*%
%ADD13C,0.1500*%
%ADD14C,0.0153*%

%LPD*%
D10*
X-573214Y-896813D02*
G01*
X-569577Y-889541D01*
X-562305Y-882266D01*
X-555030Y-878631D01*
X-540486Y-878631D01*
X-533214Y-882266D01*
X-525940Y-889541D01*
X-522305Y-896813D01*
X-518668Y-907722D01*
X-518668Y-925903D01*
X-522305Y-936812D01*
X-525940Y-944084D01*
X-533214Y-951358D01*
X-540486Y-954994D01*
X-555030Y-954994D01*
X-562305Y-951358D01*
X-569577Y-944084D01*
X-573214Y-936812D01*
X-597212Y-893175D02*
G01*
X-604486Y-889541D01*
X-615396Y-878631D01*
X-615396Y-954994D01*
X865568Y173669D02*
G01*
X869205Y180941D01*
X876477Y188216D01*
X883752Y191851D01*
X898296Y191851D01*
X905568Y188216D01*
X912842Y180941D01*
X916477Y173669D01*
X920115Y162760D01*
X920115Y144579D01*
X916477Y133670D01*
X912842Y126398D01*
X905568Y119124D01*
X898296Y115488D01*
X883752Y115488D01*
X876477Y119124D01*
X869205Y126398D01*
X865568Y133670D01*
X837933Y173669D02*
G01*
X837933Y177307D01*
X834296Y184579D01*
X830661Y188216D01*
X823386Y191851D01*
X808842Y191851D01*
X801570Y188216D01*
X797933Y184579D01*
X794296Y177307D01*
X794296Y170035D01*
X797933Y162760D01*
X805205Y151851D01*
X841570Y115488D01*
X790661Y115488D01*
X-480631Y999169D02*
G01*
X-476994Y1006441D01*
X-469722Y1013716D01*
X-462447Y1017351D01*
X-447903Y1017351D01*
X-440631Y1013716D01*
X-433357Y1006441D01*
X-429722Y999169D01*
X-426084Y988260D01*
X-426084Y970079D01*
X-429722Y959170D01*
X-433357Y951898D01*
X-440631Y944624D01*
X-447903Y940988D01*
X-462447Y940988D01*
X-469722Y944624D01*
X-476994Y951898D01*
X-480631Y959170D01*
X-555538Y1017351D02*
G01*
X-519175Y940988D01*
X-504629Y1017351D02*
G01*
X-555538Y1017351D01*
X-1091244Y8953D02*
G01*
X-1098516Y12590D01*
X-1105791Y19862D01*
X-1109426Y27137D01*
X-1109426Y41681D01*
X-1105791Y48953D01*
X-1098516Y56227D01*
X-1091244Y59862D01*
X-1080335Y63500D01*
X-1062154Y63500D01*
X-1051245Y59862D01*
X-1043973Y56227D01*
X-1036699Y48953D01*
X-1033063Y41681D01*
X-1033063Y27137D01*
X-1036699Y19862D01*
X-1043973Y12590D01*
X-1051245Y8953D01*
X-1109426Y-33228D02*
G01*
X-1105791Y-22318D01*
X-1098516Y-18681D01*
X-1091244Y-18681D01*
X-1083972Y-22318D01*
X-1080335Y-29590D01*
X-1076699Y-44135D01*
X-1073063Y-55044D01*
X-1065791Y-62318D01*
X-1058517Y-65953D01*
X-1047610Y-65953D01*
X-1040335Y-62318D01*
X-1036699Y-58681D01*
X-1033063Y-47772D01*
X-1033063Y-33228D01*
X-1036699Y-22318D01*
X-1040335Y-18681D01*
X-1047610Y-15044D01*
X-1058517Y-15044D01*
X-1065791Y-18681D01*
X-1073063Y-25953D01*
X-1076699Y-36863D01*
X-1080335Y-51409D01*
X-1083972Y-58681D01*
X-1091244Y-62318D01*
X-1098516Y-62318D01*
X-1105791Y-58681D01*
X-1109426Y-47772D01*
X-1109426Y-33228D01*
X-1192844Y8953D02*
G01*
X-1200116Y12590D01*
X-1207391Y19862D01*
X-1211026Y27137D01*
X-1211026Y41681D01*
X-1207391Y48953D01*
X-1200116Y56227D01*
X-1192844Y59862D01*
X-1181935Y63500D01*
X-1163754Y63500D01*
X-1152845Y59862D01*
X-1145573Y56227D01*
X-1138299Y48953D01*
X-1134663Y41681D01*
X-1134663Y27137D01*
X-1138299Y19862D01*
X-1145573Y12590D01*
X-1152845Y8953D01*
X-1185572Y-62318D02*
G01*
X-1174663Y-58681D01*
X-1167391Y-51409D01*
X-1163754Y-40500D01*
X-1163754Y-36863D01*
X-1167391Y-25953D01*
X-1174663Y-18681D01*
X-1185572Y-15044D01*
X-1189210Y-15044D01*
X-1200116Y-18681D01*
X-1207391Y-25953D01*
X-1211026Y-36863D01*
X-1211026Y-40500D01*
X-1207391Y-51409D01*
X-1200116Y-58681D01*
X-1185572Y-62318D01*
X-1167391Y-62318D01*
X-1149210Y-58681D01*
X-1138299Y-51409D01*
X-1134663Y-40500D01*
X-1134663Y-33228D01*
X-1138299Y-22318D01*
X-1145573Y-18681D01*
X176844Y-491553D02*
G01*
X184116Y-495190D01*
X191391Y-502462D01*
X195026Y-509737D01*
X195026Y-524281D01*
X191391Y-531553D01*
X184116Y-538827D01*
X176844Y-542462D01*
X165935Y-546100D01*
X147754Y-546100D01*
X136845Y-542462D01*
X129573Y-538827D01*
X122299Y-531553D01*
X118663Y-524281D01*
X118663Y-509737D01*
X122299Y-502462D01*
X129573Y-495190D01*
X136845Y-491553D01*
X195026Y-423918D02*
G01*
X195026Y-460281D01*
X162299Y-463918D01*
X165935Y-460281D01*
X169572Y-449371D01*
X169572Y-438464D01*
X165935Y-427555D01*
X158663Y-420281D01*
X147754Y-416646D01*
X140482Y-416646D01*
X129573Y-420281D01*
X122299Y-427555D01*
X118663Y-438464D01*
X118663Y-449371D01*
X122299Y-460281D01*
X125935Y-463918D01*
X133210Y-467555D01*
X166055Y529653D02*
G01*
X158783Y533290D01*
X151508Y540562D01*
X147873Y547837D01*
X147873Y562381D01*
X151508Y569653D01*
X158783Y576927D01*
X166055Y580562D01*
X176964Y584200D01*
X195145Y584200D01*
X206054Y580562D01*
X213326Y576927D01*
X220600Y569653D01*
X224236Y562381D01*
X224236Y547837D01*
X220600Y540562D01*
X213326Y533290D01*
X206054Y529653D01*
X162417Y505655D02*
G01*
X158783Y498381D01*
X147873Y487471D01*
X224236Y487471D01*
X147873Y441655D02*
G01*
X151508Y452564D01*
X162417Y459836D01*
X180600Y463473D01*
X191508Y463473D01*
X209689Y459836D01*
X220600Y452564D01*
X224236Y441655D01*
X224236Y434383D01*
X220600Y423473D01*
X209689Y416199D01*
X191508Y412564D01*
X180600Y412564D01*
X162417Y416199D01*
X151508Y423473D01*
X147873Y434383D01*
X147873Y441655D01*
X-956823Y638860D02*
G01*
X-880460Y638860D01*
X-956823Y638860D02*
G01*
X-956823Y606132D01*
X-953188Y595223D01*
X-949551Y591588D01*
X-942279Y587951D01*
X-935007Y587951D01*
X-927732Y591588D01*
X-924096Y595223D01*
X-920460Y606132D01*
X-920460Y638860D01*
X-920460Y613407D02*
G01*
X-880460Y587951D01*
X-942279Y563951D02*
G01*
X-945913Y556679D01*
X-956823Y545769D01*
X-880460Y545769D01*
X-973536Y-538226D02*
G01*
X-897173Y-538226D01*
X-973536Y-538226D02*
G01*
X-973536Y-570953D01*
X-969901Y-581863D01*
X-966264Y-585497D01*
X-958992Y-589135D01*
X-951720Y-589135D01*
X-944445Y-585497D01*
X-940809Y-581863D01*
X-937173Y-570953D01*
X-937173Y-538226D01*
X-937173Y-563679D02*
G01*
X-897173Y-589135D01*
X-962626Y-656770D02*
G01*
X-969901Y-653135D01*
X-973536Y-642225D01*
X-973536Y-634954D01*
X-969901Y-624044D01*
X-958992Y-616770D01*
X-940809Y-613135D01*
X-922627Y-613135D01*
X-908083Y-616770D01*
X-900811Y-624044D01*
X-897173Y-634954D01*
X-897173Y-638589D01*
X-900811Y-649498D01*
X-908083Y-656770D01*
X-918992Y-660407D01*
X-922627Y-660407D01*
X-933536Y-656770D01*
X-940809Y-649498D01*
X-944445Y-638589D01*
X-944445Y-634954D01*
X-940809Y-624044D01*
X-933536Y-616770D01*
X-922627Y-613135D01*
X-21221Y-696612D02*
G01*
X-28587Y-692805D01*
X-35951Y-685690D01*
X-39509Y-678324D01*
X-39507Y-663846D01*
X-35951Y-656478D01*
X-28585Y-649366D01*
X-21224Y-645558D01*
X-10297Y-642002D01*
X7736Y-642000D01*
X18653Y-645556D01*
X26022Y-649368D01*
X33385Y-656480D01*
X36946Y-663844D01*
X36944Y-678324D01*
X33385Y-685688D01*
X26022Y-692800D01*
X18656Y-696615D01*
X-39507Y-727854D02*
G01*
X-39509Y-767730D01*
X-10299Y-745891D01*
X-10299Y-756808D01*
X-6741Y-764176D01*
X-3187Y-767732D01*
X7736Y-771540D01*
X15102Y-771542D01*
X26024Y-767732D01*
X33390Y-760620D01*
X36944Y-749698D01*
X36941Y-738776D01*
X33390Y-727854D01*
X29578Y-724298D01*
X22463Y-720488D01*
X821352Y-396770D02*
G01*
X767293Y-450834D01*
X821352Y-396770D02*
G01*
X803394Y-378815D01*
X793153Y-373603D01*
X782741Y-373603D01*
X775012Y-376298D01*
X764781Y-381507D01*
X752027Y-394258D01*
X746820Y-404500D01*
X744123Y-412221D01*
X744126Y-422635D01*
X749335Y-432874D01*
X767293Y-450834D01*
X758134Y-354030D02*
G01*
X755439Y-346306D01*
X755619Y-331038D01*
X701560Y-385102D01*
X-175465Y-260532D02*
G01*
X-182041Y-263248D01*
X-191020Y-263875D01*
X-197909Y-262100D01*
X-207203Y-258241D01*
X-219207Y-247804D01*
X-224322Y-239140D01*
X-227040Y-232564D01*
X-227667Y-223586D01*
X-225894Y-216695D01*
X-217543Y-207088D01*
X-210967Y-204376D01*
X-201990Y-203746D01*
X-195099Y-205521D01*
X-185808Y-209382D01*
X-173802Y-219819D01*
X-168686Y-228483D01*
X-165971Y-235056D01*
X-165343Y-244038D01*
X-167114Y-250926D01*
X-175465Y-260532D01*
X-210027Y-217843D02*
G01*
X-211909Y-190908D01*
X-150418Y-212321D02*
G01*
X-143845Y-209603D01*
X-130375Y-208663D01*
X-180804Y-164825D01*
X-237413Y202018D02*
G01*
X-239895Y208686D01*
X-240210Y217683D01*
X-238196Y224505D01*
X-234012Y233657D01*
X-223164Y245290D01*
X-214327Y250101D01*
X-207660Y252587D01*
X-198666Y252900D01*
X-191841Y250888D01*
X-182532Y242206D01*
X-180050Y235541D01*
X-179735Y226545D01*
X-181749Y219722D01*
X-185933Y210571D01*
X-196781Y198935D01*
X-205618Y194127D01*
X-212283Y191640D01*
X-221279Y191328D01*
X-228104Y193339D01*
X-237413Y202018D01*
X-193540Y235069D02*
G01*
X-166560Y236011D01*
X-194129Y161658D02*
G01*
X-168534Y137787D01*
X-165135Y169425D01*
X-158153Y162915D01*
X-151328Y160901D01*
X-146832Y161058D01*
X-137995Y165869D01*
X-133654Y170525D01*
X-129471Y179677D01*
X-129786Y188668D01*
X-134597Y197505D01*
X-141577Y204015D01*
X-150728Y208198D01*
X-155227Y208041D01*
X-161891Y205557D01*
X-1100330Y-330200D02*
G01*
X-1176787Y-330202D01*
X-1100330Y-330200D02*
G01*
X-1100330Y-297436D01*
X-1103886Y-286512D01*
X-1107696Y-282958D01*
X-1114806Y-279402D01*
X-1122177Y-279402D01*
X-1129540Y-282955D01*
X-1133099Y-286514D01*
X-1136650Y-297434D01*
X-1136655Y-330200D01*
X-1136652Y-304800D02*
G01*
X-1176784Y-279402D01*
X-1114808Y-255270D02*
G01*
X-1111252Y-247906D01*
X-1100333Y-237236D01*
X-1176781Y-237238D01*
X-1114808Y-213108D02*
G01*
X-1111255Y-205739D01*
X-1100330Y-194818D01*
X-1176784Y-194820D01*
X-1087627Y215900D02*
G01*
X-1164081Y215900D01*
X-1087627Y215900D02*
G01*
X-1087627Y248665D01*
X-1091184Y259587D01*
X-1094993Y263144D01*
X-1102106Y266700D01*
X-1109472Y266700D01*
X-1116838Y263144D01*
X-1120393Y259587D01*
X-1123950Y248665D01*
X-1123950Y215900D01*
X-1123950Y241300D02*
G01*
X-1164081Y266700D01*
X-1102106Y290829D02*
G01*
X-1098550Y298195D01*
X-1087627Y308863D01*
X-1164081Y308863D01*
X-1105915Y336550D02*
G01*
X-1102106Y336550D01*
X-1094993Y340360D01*
X-1091184Y343915D01*
X-1087627Y351281D01*
X-1087627Y365760D01*
X-1091184Y372871D01*
X-1094993Y376681D01*
X-1102106Y380237D01*
X-1109472Y380237D01*
X-1116838Y376681D01*
X-1127759Y369315D01*
X-1164081Y332994D01*
X-1164081Y383794D01*
X207772Y-14478D02*
G01*
X149606Y-14478D01*
X138684Y-18034D01*
X134874Y-21589D01*
X131318Y-28955D01*
X131318Y-36321D01*
X134874Y-43434D01*
X138684Y-47244D01*
X149606Y-50800D01*
X156718Y-50800D01*
X193293Y9652D02*
G01*
X196850Y16763D01*
X207772Y27686D01*
X131318Y27686D01*
X26868Y680267D02*
G01*
X34236Y676455D01*
X41602Y669348D01*
X45163Y661977D01*
X45161Y647499D01*
X41605Y640138D01*
X34239Y633021D01*
X26873Y629216D01*
X15946Y625657D01*
X-2085Y625655D01*
X-13002Y629213D01*
X-20368Y633021D01*
X-27736Y640135D01*
X-31292Y647501D01*
X-31292Y661977D01*
X-27736Y669343D01*
X-20370Y676460D01*
X-13007Y680267D01*
X45158Y740465D02*
G01*
X-5895Y704143D01*
X-5895Y758753D01*
X45158Y740465D02*
G01*
X-31295Y740468D01*
X-986030Y-406333D02*
G01*
X-1062481Y-406333D01*
X-986030Y-406333D02*
G01*
X-986027Y-373567D01*
X-989586Y-362645D01*
X-993396Y-359089D01*
X-1000508Y-355536D01*
X-1007872Y-355533D01*
X-1015240Y-359089D01*
X-1018793Y-362645D01*
X-1022350Y-373567D01*
X-1022352Y-406333D01*
X-1022352Y-380933D02*
G01*
X-1062484Y-355533D01*
X-1004315Y-327847D02*
G01*
X-1000508Y-327847D01*
X-993396Y-324291D01*
X-989586Y-320481D01*
X-986030Y-313369D01*
X-986030Y-298637D01*
X-989586Y-291525D01*
X-993393Y-287969D01*
X-1000508Y-284159D01*
X-1007874Y-284159D01*
X-1015240Y-287969D01*
X-1026162Y-295081D01*
X-1062484Y-331403D01*
X-1062484Y-280606D01*
X653364Y382300D02*
G01*
X653364Y305937D01*
X653364Y382300D02*
G01*
X620636Y382300D01*
X609727Y378665D01*
X606092Y375028D01*
X602454Y367756D01*
X602454Y360484D01*
X606092Y353209D01*
X609727Y349575D01*
X620636Y345937D01*
X653364Y345937D01*
X627910Y345937D02*
G01*
X602454Y305937D01*
X542091Y382300D02*
G01*
X578454Y331391D01*
X523910Y331391D01*
X542091Y382300D02*
G01*
X542091Y305937D01*
X-986154Y292229D02*
G01*
X-1062352Y292229D01*
X-986154Y292229D02*
G01*
X-986154Y324741D01*
X-989711Y335663D01*
X-993266Y339473D01*
X-1000633Y343027D01*
X-1007999Y343029D01*
X-1015111Y339473D01*
X-1018920Y335663D01*
X-1022477Y324738D01*
X-1022477Y292227D01*
X-1022477Y317629D02*
G01*
X-1062354Y343027D01*
X-986152Y410590D02*
G01*
X-986154Y374271D01*
X-1018918Y370715D01*
X-1015111Y374269D01*
X-1011554Y385193D01*
X-1011554Y396115D01*
X-1015111Y407035D01*
X-1022477Y414401D01*
X-1033399Y417959D01*
X-1040511Y417959D01*
X-1051433Y414403D01*
X-1058799Y407037D01*
X-1062354Y396115D01*
X-1062354Y385190D01*
X-1058799Y374271D01*
X-1055243Y370715D01*
X-1047877Y366905D01*
X864262Y-261670D02*
G01*
X787902Y-261673D01*
X864262Y-261670D02*
G01*
X864262Y-228942D01*
X860630Y-218036D01*
X856988Y-214398D01*
X849721Y-210764D01*
X842446Y-210761D01*
X835174Y-214398D01*
X831540Y-218036D01*
X827902Y-228945D01*
X827900Y-261673D01*
X827902Y-236220D02*
G01*
X787902Y-210764D01*
X864262Y-135854D02*
G01*
X787900Y-172219D01*
X864262Y-186763D02*
G01*
X864262Y-135854D01*
X419039Y817374D02*
G01*
X419033Y740918D01*
X419039Y817374D02*
G01*
X386267Y817371D01*
X375345Y813815D01*
X371792Y810005D01*
X368233Y802894D01*
X368236Y795528D01*
X371789Y788162D01*
X375348Y784608D01*
X386267Y781047D01*
X419036Y781050D01*
X393633Y781050D02*
G01*
X368233Y740918D01*
X296862Y791971D02*
G01*
X300672Y781052D01*
X307781Y773686D01*
X318706Y770130D01*
X322262Y770130D01*
X333181Y773684D01*
X340553Y781050D01*
X344106Y791971D01*
X344106Y795528D01*
X340550Y806447D01*
X333184Y813818D01*
X322265Y817371D01*
X318703Y817374D01*
X307784Y813815D01*
X300669Y806452D01*
X296862Y791971D01*
X296862Y773684D01*
X300672Y755395D01*
X307784Y744476D01*
X318703Y740918D01*
X326072Y740920D01*
X336997Y744476D01*
X340547Y751839D01*
D11*
X-391081Y-832957D02*
G01*
X-311083Y-832957D01*
X-447126Y-833003D02*
G01*
X-527123Y-833003D01*
X-391081Y-690989D02*
G01*
X-311083Y-690989D01*
X-447126Y-691037D02*
G01*
X-527123Y-691037D01*
X-280108Y-801974D02*
G01*
X-280108Y-721969D01*
X-558101Y-722022D02*
G01*
X-558101Y-802025D01*
X746681Y83657D02*
G01*
X666683Y83657D01*
X802726Y83703D02*
G01*
X882723Y83703D01*
X746681Y-58310D02*
G01*
X666683Y-58310D01*
X802726Y-58262D02*
G01*
X882723Y-58262D01*
X635708Y52674D02*
G01*
X635708Y-27330D01*
X913701Y-27277D02*
G01*
X913701Y52725D01*
X-434418Y832957D02*
G01*
X-514416Y832957D01*
X-378373Y833003D02*
G01*
X-298376Y833003D01*
X-434418Y690989D02*
G01*
X-514416Y690989D01*
X-378373Y691037D02*
G01*
X-298376Y691037D01*
X-545391Y801974D02*
G01*
X-545391Y721969D01*
X-267398Y722022D02*
G01*
X-267398Y802025D01*
X-652942Y28018D02*
G01*
X-652942Y108016D01*
X-652896Y-28026D02*
G01*
X-652896Y-108023D01*
X-794910Y28018D02*
G01*
X-794910Y108016D01*
X-794862Y-28026D02*
G01*
X-794862Y-108023D01*
X-683925Y138991D02*
G01*
X-763930Y138991D01*
X-763877Y-139001D02*
G01*
X-683874Y-139001D01*
X-830742Y28018D02*
G01*
X-830742Y108016D01*
X-830696Y-28026D02*
G01*
X-830696Y-108023D01*
X-972710Y28018D02*
G01*
X-972710Y108016D01*
X-972662Y-28026D02*
G01*
X-972662Y-108023D01*
X-861725Y138991D02*
G01*
X-941730Y138991D01*
X-941677Y-139001D02*
G01*
X-861674Y-139001D01*
X179677Y-102298D02*
G01*
X99674Y-102298D01*
X210662Y-213273D02*
G01*
X210662Y-133276D01*
X68696Y-213273D02*
G01*
X68696Y-133276D01*
X211244Y-270863D02*
G01*
X211244Y-350862D01*
X180261Y-381845D02*
G01*
X100263Y-381845D01*
X69283Y-270863D02*
G01*
X69283Y-350862D01*
X99722Y102298D02*
G01*
X179725Y102298D01*
X68737Y213273D02*
G01*
X68737Y133276D01*
X210703Y213273D02*
G01*
X210703Y133276D01*
X68155Y270863D02*
G01*
X68155Y350862D01*
X99138Y381845D02*
G01*
X179136Y381845D01*
X210116Y270863D02*
G01*
X210116Y350862D01*
X-416438Y664202D02*
G01*
X-416438Y504197D01*
X-601499Y504708D02*
G01*
X-726495Y504708D01*
X-601499Y664712D02*
G01*
X-726495Y664712D01*
X-541441Y504197D02*
G01*
X-416438Y504197D01*
X-541441Y664202D02*
G01*
X-416438Y664202D01*
X-726495Y664712D02*
G01*
X-726495Y504708D01*
X-739129Y-664202D02*
G01*
X-739129Y-504197D01*
X-554067Y-504708D02*
G01*
X-429072Y-504708D01*
X-554067Y-664712D02*
G01*
X-429072Y-664712D01*
X-614126Y-504197D02*
G01*
X-739129Y-504197D01*
X-614126Y-664202D02*
G01*
X-739129Y-664202D01*
X-429072Y-664712D02*
G01*
X-429072Y-504708D01*
D10*
X241117Y-807763D02*
G01*
X92621Y-807760D01*
X92626Y-589239D02*
G01*
X241122Y-589239D01*
X256359Y-604479D02*
G01*
X256357Y-792520D01*
X-241122Y-807760D02*
G01*
X-92626Y-807760D01*
X-92621Y-589239D02*
G01*
X-241117Y-589236D01*
X-256357Y-604479D02*
G01*
X-256359Y-792520D01*
D11*
X553171Y-476691D02*
G01*
X425891Y-603968D01*
X664758Y-591375D02*
G01*
X540575Y-715558D01*
D12*
X555081Y-587923D02*
G01*
X486831Y-587921D01*
X555078Y-656170D01*
X555081Y-591512D01*
X520956Y-539427D02*
G01*
X599978Y-618454D01*
X589208Y-553796D02*
G01*
X497606Y-645393D01*
D11*
X-292044Y-220939D02*
G01*
X-335338Y-270743D01*
X-292044Y-220939D01*
X-335338Y-270743D01*
X-273824Y-324218D01*
X-82252Y-103842D02*
G01*
X-143769Y-50368D01*
X-187065Y-100175D01*
D12*
X-102903Y-239603D02*
G01*
X-142260Y-284878D01*
D11*
X-176314Y101097D02*
G01*
X-128051Y56090D01*
X-176314Y101097D01*
X-128051Y56090D01*
X-72463Y115704D01*
X-286019Y314848D02*
G01*
X-341607Y255236D01*
X-293342Y210228D01*
D12*
X-151061Y289473D02*
G01*
X-107188Y248559D01*
D11*
X-669297Y-472495D02*
G01*
X-829302Y-472493D01*
X-828791Y-287434D02*
G01*
X-828789Y-162438D01*
X-668789Y-287434D02*
G01*
X-668784Y-162438D01*
X-829304Y-347492D02*
G01*
X-829302Y-472493D01*
X-669297Y-347492D02*
G01*
X-669297Y-472495D01*
X-668784Y-162438D02*
G01*
X-828789Y-162438D01*
X-854702Y472495D02*
G01*
X-694697Y472495D01*
X-695208Y287434D02*
G01*
X-695208Y162438D01*
X-855212Y287434D02*
G01*
X-855212Y162438D01*
X-694697Y347492D02*
G01*
X-694697Y472495D01*
X-854702Y347492D02*
G01*
X-854702Y472495D01*
X-855212Y162438D02*
G01*
X-695208Y162438D01*
D13*
X232089Y-199897D02*
G01*
X351977Y-199897D01*
X392109Y-160020D01*
X392109Y160020D01*
X351977Y199897D01*
X352099Y199999D02*
G01*
X342099Y199999D01*
X232100Y199999D01*
X232100Y-199999D01*
D10*
X-241119Y807760D02*
G01*
X-92621Y807760D01*
X-92621Y589239D02*
G01*
X-241119Y589236D01*
X-256359Y604479D02*
G01*
X-256362Y792523D01*
X241119Y807763D02*
G01*
X92621Y807760D01*
X92621Y589239D02*
G01*
X241119Y589239D01*
X256362Y604476D02*
G01*
X256359Y792520D01*
D11*
X-478797Y-472498D02*
G01*
X-638802Y-472495D01*
X-638291Y-287434D02*
G01*
X-638294Y-162438D01*
X-478287Y-287434D02*
G01*
X-478287Y-162438D01*
X-638802Y-347492D02*
G01*
X-638802Y-472495D01*
X-478797Y-347492D02*
G01*
X-478797Y-472498D01*
X-478287Y-162438D02*
G01*
X-638294Y-162438D01*
X441904Y123197D02*
G01*
X441904Y283202D01*
X626965Y282691D02*
G01*
X751961Y282691D01*
X626965Y122687D02*
G01*
X751961Y122687D01*
X566907Y283202D02*
G01*
X441904Y283202D01*
X566907Y123197D02*
G01*
X441904Y123197D01*
X751961Y122687D02*
G01*
X751961Y282691D01*
X-504197Y162504D02*
G01*
X-664204Y162504D01*
X-663691Y347565D02*
G01*
X-663689Y472561D01*
X-503687Y347565D02*
G01*
X-503687Y472561D01*
X-664202Y287505D02*
G01*
X-664204Y162504D01*
X-504197Y287507D02*
G01*
X-504197Y162504D01*
X-503687Y472561D02*
G01*
X-663689Y472561D01*
X751895Y-123197D02*
G01*
X751895Y-283204D01*
X566834Y-282691D02*
G01*
X441838Y-282689D01*
X566834Y-122687D02*
G01*
X441838Y-122687D01*
X626892Y-283204D02*
G01*
X751895Y-283204D01*
X626892Y-123195D02*
G01*
X751895Y-123197D01*
X441838Y-122687D02*
G01*
X441838Y-282689D01*
X289504Y542297D02*
G01*
X289504Y702302D01*
X474565Y701791D02*
G01*
X599561Y701789D01*
X474565Y541787D02*
G01*
X599561Y541789D01*
X414505Y702304D02*
G01*
X289504Y702302D01*
X414507Y542297D02*
G01*
X289504Y542297D01*
X599561Y541789D02*
G01*
X599561Y701789D01*
G75*
G01*
X-527119Y-691037D02*
G03*
X-558101Y-722023I0J-30983D01*
G75*
G01*
X-558101Y-802020D02*
G03*
X-527119Y-833003I30982J0D01*
G75*
G01*
X-311089Y-832957D02*
G03*
X-280109Y-801975I-3J30982D01*
G75*
G01*
X-280109Y-721977D02*
G03*
X-311089Y-690989I-30983J5D01*
G75*
G01*
X882719Y-58263D02*
G03*
X913701Y-27277I0J30983D01*
G75*
G01*
X913701Y52720D02*
G03*
X882719Y83703I-30982J0D01*
G75*
G01*
X666689Y83657D02*
G03*
X635709Y52675I3J-30982D01*
G75*
G01*
X635709Y-27323D02*
G03*
X666689Y-58311I30983J-5D01*
G75*
G01*
X-298381Y691037D02*
G03*
X-267399Y722023I0J30983D01*
G75*
G01*
X-267399Y802020D02*
G03*
X-298381Y833003I-30982J0D01*
G75*
G01*
X-514411Y832957D02*
G03*
X-545391Y801975I3J-30982D01*
G75*
G01*
X-545391Y721977D02*
G03*
X-514411Y690989I30983J-5D01*
G75*
G01*
X-794863Y-108019D02*
G03*
X-763877Y-139001I30983J0D01*
G75*
G01*
X-683880Y-139001D02*
G03*
X-652897Y-108019I0J30982D01*
G75*
G01*
X-652943Y108011D02*
G03*
X-683925Y138991I-30982J-3D01*
G75*
G01*
X-763923Y138991D02*
G03*
X-794911Y108011I-5J-30983D01*
G75*
G01*
X-972663Y-108019D02*
G03*
X-941677Y-139001I30983J0D01*
G75*
G01*
X-861680Y-139001D02*
G03*
X-830697Y-108019I0J30982D01*
G75*
G01*
X-830743Y108011D02*
G03*
X-861725Y138991I-30982J-3D01*
G75*
G01*
X-941723Y138991D02*
G03*
X-972711Y108011I-5J-30983D01*
G75*
G01*
X180261Y-381851D02*
G03*
X211244Y-350868I0J30983D01*
G75*
G01*
X69278Y-350868D02*
G03*
X100264Y-381851I30983J0D01*
G75*
G01*
X210663Y-133281D02*
G03*
X179677Y-102299I-30983J0D01*
G75*
G01*
X99680Y-102299D02*
G03*
X68697Y-133281I0J-30982D01*
G75*
G01*
X99139Y381851D02*
G03*
X68156Y350868I0J-30983D01*
G75*
G01*
X210122Y350868D02*
G03*
X179136Y381851I-30983J0D01*
G75*
G01*
X68737Y133281D02*
G03*
X99723Y102299I30983J0D01*
G75*
G01*
X179720Y102299D02*
G03*
X210703Y133281I0J30982D01*
D10*
G75*
G01*
X241122Y-589239D02*
G02*
X256360Y-604479I-2J-15240D01*
G75*
G01*
X256357Y-792521D02*
G02*
X241117Y-807763I-15240J-2D01*
G75*
G01*
X-241117Y-589237D02*
G03*
X-256357Y-604479I0J-15240D01*
G75*
G01*
X-256360Y-792521D02*
G03*
X-241122Y-807761I15240J0D01*
G75*
G01*
X-241120Y589237D02*
G02*
X-256360Y604479I0J15240D01*
G75*
G01*
X-256362Y792523D02*
G02*
X-241120Y807761I15240J-2D01*
G75*
G01*
X241120Y589239D02*
G03*
X256362Y604477I2J15240D01*
G75*
G01*
X256360Y792521D02*
G03*
X241120Y807763I-15240J2D01*
D11*
G75*
G01
X1003300Y0D02*
G03X1003300Y0I-1003300J0D01*
M02*
