G04 Layer: BottomPasteMaskLayer*
G04 EasyEDA v6.5.54, 2026-05-09 17:25:40*
G04 8a625d17ac994dda926aaf0c6716fe8f,0de2d170eb8348028f5b305b88e97ed8,10*
G04 Gerber Generator version 0.2*
G04 Scale: 100 percent, Rotated: No, Reflected: No *
G04 Dimensions in millimeters *
G04 leading zeros omitted , absolute positions ,4 integer and 5 decimal *
%FSLAX45Y45*%
%MOMM*%

%AMMACRO1*21,1,$1,$2,0,0,$3*%
%ADD10MACRO1,0.8001X0.9002X0.0000*%
%ADD11MACRO1,0.8001X0.9002X-90.0000*%
%ADD12MACRO1,0.8001X0.9002X90.0000*%
%ADD13MACRO1,1X1.0998X0.0000*%
%ADD14MACRO1,1.0999X1.7X45.0000*%
%ADD15C,0.0108*%
%ADD16MACRO1,1.0999X1.7001X45.0000*%
%ADD17MACRO1,0.7X1.25X49.0018*%
%ADD18MACRO1,0.7002X1.2499X136.9992*%
%ADD19MACRO1,0.6998X1.2501X137.0003*%
%ADD20MACRO1,1X1.0998X90.0000*%
%ADD21MACRO1,1X1.0998X90.0146*%
%ADD22MACRO1,1X1.0998X-90.0000*%
%ADD23MACRO1,1X1.0998X0.0146*%

%LPD*%
G36*
X94996Y-612089D02*
G01*
X84988Y-622096D01*
X84988Y-659130D01*
X94996Y-669137D01*
X125476Y-669137D01*
X135483Y-679145D01*
X135483Y-717854D01*
X125476Y-727862D01*
X94996Y-727862D01*
X84988Y-737870D01*
X84988Y-774903D01*
X94996Y-784910D01*
X223520Y-784910D01*
X233527Y-774903D01*
X233527Y-622096D01*
X223520Y-612089D01*
G37*
G36*
X-223520Y-612089D02*
G01*
X-233527Y-622096D01*
X-233527Y-774903D01*
X-223520Y-784910D01*
X-94996Y-784910D01*
X-84988Y-774903D01*
X-84988Y-737870D01*
X-94996Y-727862D01*
X-125476Y-727862D01*
X-135483Y-717854D01*
X-135483Y-679145D01*
X-125476Y-669137D01*
X-94996Y-669137D01*
X-84988Y-659130D01*
X-84988Y-622096D01*
X-94996Y-612089D01*
G37*
G36*
X-223520Y784910D02*
G01*
X-233476Y774903D01*
X-233476Y622096D01*
X-223520Y612089D01*
X-94996Y612089D01*
X-84988Y622096D01*
X-84988Y659130D01*
X-94996Y669137D01*
X-125476Y669137D01*
X-135483Y679145D01*
X-135483Y717854D01*
X-125476Y727862D01*
X-94996Y727862D01*
X-84988Y737870D01*
X-84988Y774903D01*
X-94996Y784910D01*
G37*
G36*
X94996Y784910D02*
G01*
X84988Y774903D01*
X84988Y737870D01*
X94996Y727862D01*
X125476Y727862D01*
X135483Y717854D01*
X135483Y679145D01*
X125476Y669137D01*
X94996Y669137D01*
X84988Y659130D01*
X84988Y622096D01*
X94996Y612089D01*
X223520Y612089D01*
X233476Y622096D01*
X233476Y774903D01*
X223520Y784910D01*
G37*
D10*
G01*
X-489102Y-762000D03*
G01*
X-349097Y-762000D03*
G01*
X844702Y12700D03*
G01*
X704697Y12700D03*
G01*
X-336397Y762000D03*
G01*
X-476402Y762000D03*
D11*
G01*
X-723900Y-70002D03*
G01*
X-723900Y70002D03*
G01*
X-901700Y-70002D03*
G01*
X-901700Y70002D03*
D12*
G01*
X139700Y-171297D03*
G01*
X139700Y-311302D03*
D11*
G01*
X139700Y171297D03*
G01*
X139700Y311302D03*
D13*
G01*
X-651446Y584200D03*
G01*
X-491451Y584200D03*
G01*
X-504126Y-584200D03*
G01*
X-664121Y-584200D03*
D14*
G01*
X666318Y-476694D03*
D16*
G01*
X425894Y-717105D03*
D17*
G01*
X-284810Y-121221D03*
G01*
X-158496Y-356882D03*
G01*
X-33858Y-213499D03*
D18*
G01*
X-275717Y111798D03*
G01*
X-35788Y229806D03*
D19*
G01*
X-174752Y359384D03*
D20*
G01*
X-749300Y-237502D03*
D21*
G01*
X-749287Y-397497D03*
D22*
G01*
X-774700Y237502D03*
G01*
X-774700Y397497D03*
D20*
G01*
X-558800Y-237502D03*
G01*
X-558800Y-397497D03*
D13*
G01*
X676897Y203200D03*
G01*
X516902Y203200D03*
D20*
G01*
X-584200Y397497D03*
G01*
X-584200Y237502D03*
D13*
G01*
X516902Y-203200D03*
G01*
X676897Y-203200D03*
G01*
X524509Y622300D03*
D23*
G01*
X364502Y622287D03*
M02*
